<svg width="20" height="23" viewBox="0 0 20 23" fill="none" xmlns="http://www.w3.org/2000/svg">
<path fill-rule="evenodd" clip-rule="evenodd" d="M18.5689 6.40292C18.5354 6.03252 18.2267 5.74872 17.8574 5.74872H16.4287H14.2859V4.31132C14.2859 1.93352 12.3635 -0.000976562 10.0003 -0.000976562C7.63685 -0.000976562 5.71436 1.93352 5.71436 4.31132V5.74872H3.57154H2.14307C1.77369 5.74872 1.46497 6.03252 1.43164 6.40292L0.00293313 22.2155C-0.0152569 22.4164 0.0517631 22.6158 0.187133 22.7643C0.322383 22.9141 0.513913 22.9988 0.714473 22.9988H19.2859C19.4866 22.9988 19.6779 22.9141 19.8132 22.7643C19.9486 22.6158 20.0155 22.4164 19.9974 22.2155L18.5689 6.40292ZM7.14295 4.31132C7.14295 2.72562 8.42469 1.43642 10.0003 1.43642C11.5756 1.43642 12.8574 2.72562 12.8574 4.31132V5.74872H7.14295V4.31132ZM1.49683 21.5614L2.79529 7.18622H3.57154H5.71436V8.82332C5.28931 9.07262 5.00025 9.53032 5.00025 10.0619C5.00025 10.8552 5.63978 11.4994 6.42884 11.4994C7.21766 11.4994 7.85731 10.8552 7.85731 10.0619C7.85731 9.53032 7.56813 9.07262 7.14295 8.82332V7.18622H12.8574V8.82332C12.4321 9.07262 12.143 9.53032 12.143 10.0619C12.143 10.8552 12.7827 11.4994 13.5717 11.4994C14.3606 11.4994 15.0003 10.8552 15.0003 10.0619C15.0003 9.53032 14.7109 9.07262 14.2859 8.82332V7.18622H16.4287H17.2052L18.5035 21.5614H1.49683Z" fill="black"/>
</svg>
