<svg width="26" height="27" viewBox="0 0 26 27" fill="none" xmlns="http://www.w3.org/2000/svg">
<g clip-path="url(#clip0_419_9)">
<path fill-rule="evenodd" clip-rule="evenodd" d="M21 20C19.3432 20 18 21.3432 18 23C18 24.6568 19.3432 26 21 26C22.6568 26 24 24.6568 24 23C23.9982 21.3439 22.6561 20.0018 21 20ZM21 24C20.4477 24 20 23.5523 20 23C20 22.4477 20.4477 22 21 22C21.5523 22 22 22.4477 22 23C21.9993 23.552 21.552 23.9993 21 24Z" fill="#45842E"/>
<path fill-rule="evenodd" clip-rule="evenodd" d="M15 20H7C6.44771 20 6 19.5523 6 19C6 18.4477 6.44772 18 7 18H23C23.4887 18 23.9058 17.6467 23.9863 17.1647L25.9863 5.1646C26.0347 4.87463 25.953 4.57806 25.763 4.35373C25.5731 4.12939 25.294 4.00002 25 4H9C8.44771 4 8 4.44772 8 5C8 5.55229 8.44772 6 9 6H23.8193L22.1528 16H9.6928L3.9365 0.6489C3.79 0.25862 3.41687 8e-05 3 0H1C0.44772 0 0 0.44772 0 1C0 1.55228 0.44772 2 1 2H2.3071L7.5571 16H7C5.49234 15.9893 4.21255 17.1027 4.01459 18.5973C3.81663 20.092 4.76243 21.5002 6.2209 21.8823C5.70388 23.1247 6.07584 24.5593 7.13137 25.394C8.1869 26.2286 9.66864 26.2598 10.7584 25.4703C11.8481 24.6807 12.28 23.263 11.8157 22H15C15.5523 22 16 21.5523 16 21C16 20.4477 15.5523 20 15 20V20ZM10 23C10 23.5523 9.55228 24 9 24C8.44771 24 8 23.5523 8 23C8 22.4477 8.44772 22 9 22C9.55199 22.0007 9.99928 22.448 10 23Z" fill="#45842E"/>
</g>
<defs>
<clipPath id="clip0_419_9">
<rect width="25.9999" height="26.0419" fill="white"/>
</clipPath>
</defs>
</svg>
