<svg width="13" height="12" viewBox="0 0 13 12" fill="none" xmlns="http://www.w3.org/2000/svg">
<g clip-path="url(#clip0_1_6939)">
<path d="M10.7418 11.6077L6.7138 7.43924L2.68585 11.6077C2.30245 12.0046 1.66885 12.0154 1.27195 11.632C0.875052 11.2477 0.864252 10.615 1.24765 10.2181L5.32332 6.00025L1.24765 1.7824C0.864252 1.3855 0.875052 0.752801 1.27195 0.368501C1.66885 -0.0148989 2.30245 -0.00409886 2.68585 0.392801L6.7138 4.56126L10.7418 0.392801C11.1252 -0.00409886 11.7588 -0.0148989 12.1557 0.368501C12.5526 0.752801 12.5634 1.3855 12.18 1.7824L8.10428 6.00025L12.18 10.2181C12.5634 10.615 12.5526 11.2477 12.1557 11.632C11.9617 11.8194 11.7111 11.9126 11.4609 11.9126C11.1992 11.9126 10.9378 11.8106 10.7418 11.6077Z" fill="#1A1A1A"/>
<g clip-path="url(#clip1_1_6939)">
<mask id="mask0_1_6939" style="mask-type:alpha" maskUnits="userSpaceOnUse" x="0" y="0" width="13" height="12">
<path d="M10.7418 11.6077L6.7138 7.43924L2.68585 11.6077C2.30245 12.0046 1.66885 12.0154 1.27195 11.632C0.875052 11.2477 0.864252 10.615 1.24765 10.2181L5.32332 6.00025L1.24765 1.7824C0.864252 1.3855 0.875052 0.752801 1.27195 0.368501C1.66885 -0.0148989 2.30245 -0.00409886 2.68585 0.392801L6.7138 4.56126L10.7418 0.392801C11.1252 -0.00409886 11.7588 -0.0148989 12.1557 0.368501C12.5526 0.752801 12.5634 1.3855 12.18 1.7824L8.10428 6.00025L12.18 10.2181C12.5634 10.615 12.5526 11.2477 12.1557 11.632C11.9617 11.8194 11.7111 11.9126 11.4609 11.9126C11.1992 11.9126 10.9378 11.8106 10.7418 11.6077Z" fill="black"/>
</mask>
<g mask="url(#mask0_1_6939)">
<rect x="-5" y="-6" width="24" height="24" fill="#1A1A1A"/>
</g>
</g>
</g>
<defs>
<clipPath id="clip0_1_6939">
<rect width="11.4935" height="11.8247" fill="white" transform="translate(0.967041 0.0878906)"/>
</clipPath>
<clipPath id="clip1_1_6939">
<rect width="11.4935" height="11.8247" fill="white" transform="translate(0.967041 0.0878906)"/>
</clipPath>
</defs>
</svg>
