<svg aria-hidden="true" style="position: absolute; width: 0; height: 0; overflow: hidden;" version="1.1"
  xmlns="http://www.w3.org/2000/svg" xmlns:xlink="http://www.w3.org/1999/xlink">
  <defs>

    <symbol id="icon-box" viewBox="0 0 512 512">
      <g transform="translate(0.000000,512.000000) scale(0.100000,-0.100000)" fill="#000000" stroke="none">
      <path d="M1398 4310 c-708 -355 -1141 -577 -1148 -589 -14 -27 -14 -2295 0 -2322 12 -22 2278 -1159 2310 -1159 32 0 2298 1137 2310 1159 14 27 14 2295 0 2322 -13 24 -2279 1159 -2312 1158 -13 0 -535 -256 -1160 -569z m1437 263 c151 -76 275 -140 275 -143 -1 -3 -448 -242 -996 -532 l-994 -528 -305 153 c-168 83 -305 154 -305 157 0 4 2034 1026 2047 1029 2 1 127 -61 278 -136z m694 -347 c220 -111 224 -113 200 -128 -13 -9 -462 -248 -997 -532 l-972 -516 -232 116 c-221 111 -231 117 -208 129 14 7 462 245 995 529 534 284 975 515
        980 515 6 0 111 -51 234 -113z m746 -373 c184 -93 335 -170 335 -173 0 -3
        -461 -236 -1025 -518 l-1025 -512 -312 156 c-296 148 -311 157 -288 169 14 7
        462 245 995 529 534 284 973 516 977 516 5 0 159 -75 343 -167z m-3235 -1053
        l0 -431 25 -24 c24 -24 28 -25 182 -25 l157 0 161 -160 c142 -140 165 -160
        194 -160 21 0 41 9 56 25 l25 24 0 391 0 390 320 -160 320 -160 0 -1030 0
        -1030 -1040 520 -1040 520 0 1030 0 1030 320 -160 320 -160 0 -430z m3680
        -280 l0 -1030 -1040 -520 -1040 -520 0 1030 0 1030 1038 519 c570 286 1038
        520 1040 520 1 1 2 -462 2 -1029z m-3040 73 l0 -317 -104 102 -103 102 -137 0
        -136 0 0 335 0 335 240 -120 240 -120 0 -317z"/>
      </g>
    </symbol>

    <symbol id="icon-coffee" viewBox="0 0 32 32">
      <path
        d="M6 2.5C5.44772 2.5 5 2.94772 5 3.5V5.5C5 6.05228 5.44772 6.5 6 6.5C6.55228 6.5 7 6.05228 7 5.5V3.5C7 2.94772 6.55228 2.5 6 2.5Z"
        fill="currentColor" />
      <path fill-rule="evenodd" clip-rule="evenodd"
        d="M13 21.5C15.973 21.5 18.441 19.3377 18.917 16.5H19C21.2091 16.5 23 14.7091 23 12.5C23 10.2909 21.2091 8.5 19 8.5V7.5H1V15.5C1 18.8137 3.68629 21.5 7 21.5H13ZM3 9.5V15.5C3 17.7091 4.79086 19.5 7 19.5H13C15.2091 19.5 17 17.7091 17 15.5V9.5H3ZM21 12.5C21 13.6046 20.1046 14.5 19 14.5V10.5C20.1046 10.5 21 11.3954 21 12.5Z"
        fill="currentColor" />
      <path
        d="M9 3.5C9 2.94772 9.44771 2.5 10 2.5C10.5523 2.5 11 2.94772 11 3.5V5.5C11 6.05228 10.5523 6.5 10 6.5C9.44771 6.5 9 6.05228 9 5.5V3.5Z"
        fill="currentColor" />
      <path
        d="M14 2.5C13.4477 2.5 13 2.94772 13 3.5V5.5C13 6.05228 13.4477 6.5 14 6.5C14.5523 6.5 15 6.05228 15 5.5V3.5C15 2.94772 14.5523 2.5 14 2.5Z"
        fill="currentColor" />
    </symbol>

    <symbol id="icon-balance" viewBox="0 0 512 512">
      <g transform="translate(0.000000,512.000000) scale(0.100000,-0.100000)"
      fill="#000000" stroke="none">
      <path d="M34 4886 c-30 -30 -34 -40 -34 -87 0 -90 35 -233 79 -323 100 -206
      269 -352 496 -427 69 -23 76 -24 650 -29 l580 -5 0 -200 0 -200 -520 -5 c-513
      -5 -521 -5 -576 -28 -185 -75 -317 -226 -353 -407 -8 -38 -92 -658 -187 -1376
      -162 -1225 -172 -1310 -160 -1362 23 -105 104 -192 205 -222 75 -22 4617 -22
      4692 0 101 30 182 117 205 222 12 52 2 138 -165 1397 -189 1425 -188 1419
      -256 1526 -41 65 -138 154 -203 186 -121 62 -83 58 -702 64 l-570 5 0 200 0
      200 630 5 c627 5 630 5 700 29 302 100 501 324 561 629 26 135 13 206 -43 231
      -17 8 -744 11 -2509 11 l-2486 0 -34 -34z m4871 -198 c-46 -212 -227 -397
      -441 -452 -55 -14 -259 -16 -1904 -16 -1650 0 -1849 2 -1904 16 -215 55 -395
      240 -441 452 l-7 32 2352 0 2352 0 -7 -32z m-1895 -873 l0 -205 -500 0 -500 0
      0 205 0 205 500 0 500 0 0 -205z m1362 -433 c74 -37 134 -96 167 -165 30 -60
      36 -104 206 -1387 191 -1442 183 -1355 123 -1405 l-30 -25 -2285 0 -2285 0
      -34 34 c-19 19 -34 43 -34 54 0 11 79 616 176 1344 188 1419 180 1375 249
      1456 36 43 99 86 155 105 40 15 223 16 1795 14 l1750 -2 47 -23z"/>
      <path d="M2356 3094 c-257 -47 -458 -153 -647 -343 -236 -238 -349 -509 -349
      -839 0 -334 113 -613 345 -848 177 -179 375 -286 630 -340 97 -20 330 -23 425
      -5 258 49 471 160 650 341 235 236 350 517 350 852 0 330 -113 601 -349 839
      -241 242 -525 361 -860 358 -64 0 -152 -7 -195 -15z m104 -300 l0 -116 34 -34
      c36 -36 67 -42 109 -23 45 21 57 57 57 178 l0 111 33 -6 c163 -28 304 -82 426
      -165 231 -154 393 -410 435 -686 l6 -43 -107 0 c-126 0 -163 -15 -183 -74 -9
      -29 -8 -41 5 -69 23 -48 50 -57 176 -57 l110 0 -7 -47 c-35 -245 -172 -482
      -368 -639 -131 -105 -319 -187 -478 -209 l-46 -7 -4 122 c-3 119 -4 122 -31
      146 -38 33 -96 33 -134 0 -27 -24 -28 -27 -31 -146 l-4 -122 -46 7 c-321 45
      -629 274 -762 569 -34 74 -74 207 -84 279 l-7 47 110 0 c126 0 153 9 176 57
      13 28 14 40 5 69 -20 59 -57 74 -183 74 l-107 0 6 43 c57 371 325 691 675 806
      53 17 168 45 212 50 4 1 7 -51 7 -115z"/>
      <path d="M2821 2306 l-126 -125 -55 15 c-199 54 -392 -102 -377 -306 17 -247
      308 -370 492 -208 87 77 125 204 92 309 l-14 47 114 113 c128 127 150 162 133
      214 -14 42 -48 65 -96 65 -34 0 -48 -10 -163 -124z m-187 -337 c24 -27 27 -38
      23 -73 -8 -54 -44 -86 -98 -86 -83 0 -128 91 -78 154 43 55 105 57 153 5z"/>
      </g>
    </symbol>

    <symbol id="icon-minus" viewBox="0 0 12 2">
      <path d="M11.25 1.75H0.75C0.335789 1.75 0 1.41421 0 1C0 0.585789 0.335789 0.25 0.75 0.25H11.25C11.6642 0.25 12 0.585789 12 1C12 1.41421 11.6642 1.75 11.25 1.75Z" fill="#45842E"/>
    </symbol>

    <symbol id="icon-plus" viewBox="0 0 12 12">
     <path d="M11.25 5.25H6.75V0.75C6.75 0.335789 6.41421 0 6 0C5.58579 0 5.25 0.335789 5.25 0.75V5.25H0.75C0.335789 5.25 0 5.58579 0 6C0 6.41421 0.335789 6.75 0.75 6.75H5.25V11.25C5.25 11.6642 5.58579 12 6 12C6.41421 12 6.75 11.6642 6.75 11.25V6.75H11.25C11.6642 6.75 12 6.41421 12 6C12 5.58579 11.6642 5.25 11.25 5.25Z" fill="#45842E"/>
    </symbol>

    <symbol id="icon-cart" viewBox="0 0 26 27" >
      <path fill-rule="evenodd" clip-rule="evenodd" d="M21 20C19.3432 20 18 21.3432 18 23C18 24.6568 19.3432 26 21 26C22.6568 26 24 24.6568 24 23C23.9982 21.3439 22.6561 20.0018 21 20ZM21 24C20.4477 24 20 23.5523 20 23C20 22.4477 20.4477 22 21 22C21.5523 22 22 22.4477 22 23C21.9993 23.552 21.552 23.9993 21 24Z" fill="#45842E"/>
      <path fill-rule="evenodd" clip-rule="evenodd" d="M15 20H7C6.44771 20 6 19.5523 6 19C6 18.4477 6.44772 18 7 18H23C23.4887 18 23.9058 17.6467 23.9863 17.1647L25.9863 5.1646C26.0347 4.87463 25.953 4.57806 25.763 4.35373C25.5731 4.12939 25.294 4.00002 25 4H9C8.44771 4 8 4.44772 8 5C8 5.55229 8.44772 6 9 6H23.8193L22.1528 16H9.6928L3.9365 0.6489C3.79 0.25862 3.41687 8e-05 3 0H1C0.44772 0 0 0.44772 0 1C0 1.55228 0.44772 2 1 2H2.3071L7.5571 16H7C5.49234 15.9893 4.21255 17.1027 4.01459 18.5973C3.81663 20.092 4.76243 21.5002 6.2209 21.8823C5.70388 23.1247 6.07584 24.5593 7.13137 25.394C8.1869 26.2286 9.66864 26.2598 10.7584 25.4703C11.8481 24.6807 12.28 23.263 11.8157 22H15C15.5523 22 16 21.5523 16 21C16 20.4477 15.5523 20 15 20V20ZM10 23C10 23.5523 9.55228 24 9 24C8.44771 24 8 23.5523 8 23C8 22.4477 8.44772 22 9 22C9.55199 22.0007 9.99928 22.448 10 23Z" fill="#45842E"/>
    </symbol>

    <symbol id="icon-pesquisa" viewBox="0 0 27 26">
      <path fill-rule="evenodd" clip-rule="evenodd" d="M10.6363 20.9585C12.9438 20.9585 15.1853 20.1886 17.0057 18.7707L23.8736 25.6387C24.3867 26.1342 25.2042 26.12 25.6997 25.6069C26.1831 25.1064 26.1831 24.313 25.6997 23.8126L18.8318 16.9447C22.3502 12.4155 21.5309 5.89164 17.0017 2.37321C12.4726 -1.14522 5.94877 -0.325902 2.43034 4.20327C-1.08809 8.73244 -0.268773 15.2563 4.2604 18.7747C6.0838 20.1912 8.3273 20.9596 10.6363 20.9585ZM5.11797 5.05687C8.16568 2.0091 13.107 2.00905 16.1548 5.05676C19.2025 8.10447 19.2026 13.0458 16.1549 16.0936C13.1072 19.1413 8.16584 19.1414 5.11808 16.0937C5.11802 16.0936 5.11802 16.0936 5.11797 16.0936C2.07026 13.068 2.0523 8.14475 5.07781 5.09704C5.09118 5.08362 5.10455 5.07025 5.11797 5.05688V5.05687Z" fill="#5A5A5A"/>
    </symbol>

    <symbol id="icon-filter-a" viewBox="0 0 704.000000 512.000000" preserveAspectRatio="xMidYMid meet">
      <g transform="translate(0.000000,512.000000) scale(0.100000,-0.100000)" fill="#000000" stroke="none"></g>
    </symbol>
  </defs>
</svg>
