<svg width="52" height="42" viewBox="0 0 52 42" fill="none" xmlns="http://www.w3.org/2000/svg">
<path d="M16.88 20.04L22.16 0.959995H10.28L3.32 18.24C0.56 24.84 0.0800002 27.12 0.0800002 30.24C0.0800002 37.08 5 41.76 11.72 41.76C18.32 41.76 23.24 37.2 23.24 30.24C23.24 25.32 20.84 21.72 16.88 20.04ZM45.2 20.04L50.48 0.959995H38.6L31.64 18.24C28.88 24.84 28.4 27.12 28.4 30.24C28.4 37.08 33.32 41.76 40.04 41.76C46.64 41.76 51.56 37.2 51.56 30.24C51.56 25.32 49.16 21.72 45.2 20.04Z" fill="white"/>
</svg>
