<svg width="21" height="18" viewBox="0 0 21 18" fill="none" xmlns="http://www.w3.org/2000/svg">
<path fill-rule="evenodd" clip-rule="evenodd" d="M10.9856 17.9894C10.5052 17.9894 10.0414 17.8082 9.67992 17.4799C6.97997 15.0268 2.32897 10.6534 1.51488 8.92764C0.890368 7.60304 0.806378 6.15144 1.27269 4.73004C1.86937 2.91204 3.3662 1.53084 5.17943 1.12724C5.57616 1.03894 5.97838 0.994141 6.37596 0.994141C8.28844 0.994141 10.0234 2.04644 10.9856 3.65624C11.9477 2.04644 13.6831 0.994141 15.5954 0.994141C15.9928 0.994141 16.3954 1.03894 16.792 1.12724C18.6051 1.53084 20.1021 2.91204 20.6988 4.73004C21.1648 6.15144 21.0813 7.60304 20.4566 8.92764C19.6425 10.6534 14.9915 15.0268 12.2916 17.4799C11.9299 17.8082 11.4662 17.9894 10.9856 17.9894H10.9856ZM6.37596 2.62004C6.0908 2.62004 5.80076 2.65274 5.5139 2.71624C4.24205 2.99884 3.19127 3.97034 2.77183 5.24984C2.44053 6.25854 2.49851 7.28574 2.93821 8.21784C3.43003 9.26164 6.41489 12.3428 10.7273 16.2621C10.9128 16.43 11.0587 16.43 11.2441 16.2621C15.5565 12.3428 18.5415 9.26164 19.0331 8.21784C19.473 7.28574 19.531 6.25854 19.1996 5.24984C18.78 3.97034 17.7292 2.99884 16.4575 2.71624C14.3674 2.25304 12.2926 3.63874 11.8606 5.72184C11.7712 6.15144 11.4118 6.45094 10.9856 6.45094C10.5597 6.45094 10.1999 6.15144 10.1111 5.72304C9.73826 3.92494 8.16758 2.62004 6.37595 2.62004H6.37596Z" fill="black"/>
</svg>
