<svg width="113" height="72" viewBox="0 0 113 72" fill="none" xmlns="http://www.w3.org/2000/svg">
<path d="M62.333 23.6984C62.333 23.6984 60.9592 18.6622 66.6821 18.1219C66.6821 18.1219 67.3255 23.4254 62.333 23.6984Z" fill="white"/>
<path d="M62.9369 30.8354C62.9369 30.8354 62.3898 36.0263 68.1268 35.6413C68.1268 35.6413 67.91 30.3024 62.9369 30.8354Z" fill="white"/>
<path d="M62.5625 27.1668C62.5625 27.1668 65.6815 22.9808 69.6357 27.1554C69.6357 27.1554 65.853 30.9314 62.5625 27.1668Z" fill="white"/>
<path d="M53.0074 23.6984C53.0074 23.6984 54.3828 18.6622 48.6599 18.1219C48.6599 18.1219 48.016 23.4254 53.0074 23.6984Z" fill="white"/>
<path d="M52.4048 30.8354C52.4048 30.8354 52.9518 36.0263 47.2148 35.6413C47.2148 35.6413 47.4305 30.3024 52.4048 30.8354Z" fill="white"/>
<path d="M52.7788 27.1668C52.7788 27.1668 49.6618 22.9808 45.7061 27.1554C45.7061 27.1554 49.4883 30.9314 52.7788 27.1668Z" fill="white"/>
<path fill-rule="evenodd" clip-rule="evenodd" d="M83.7717 31.1677C82.9257 28.7327 82.8418 24.7201 83.5904 22.2507C84.3354 19.7824 83.2179 16.5571 81.0996 15.0858C78.9819 13.612 76.5584 10.4127 75.7097 7.97667C74.8641 5.54061 72.0634 3.59062 69.483 3.6448C66.9021 3.69534 63.0626 2.53409 60.9443 1.06079C58.8282 -0.411472 55.4147 -0.342712 53.359 1.21396C51.3043 2.77218 47.5142 4.09024 44.938 4.14234C42.3587 4.196 39.6377 6.25852 38.8864 8.72792C38.1419 11.1968 35.8502 14.4904 33.796 16.0491C31.7398 17.6073 30.752 20.8749 31.5975 23.3104C32.4436 25.747 32.5259 29.7611 31.7783 32.2284C31.0323 34.6957 32.1534 37.9221 34.2685 39.3938C36.3863 40.8682 38.8114 44.0664 39.6585 46.5035C40.5056 48.939 43.3068 50.889 45.8862 50.8364C48.4629 50.7817 52.3082 51.9456 54.4228 53.421C56.5395 54.8906 59.9539 54.8229 62.0097 53.2642C64.0659 51.7054 67.8555 50.3879 70.4343 50.3353C73.0105 50.2837 75.73 48.2217 76.4833 45.7523C77.2278 43.2839 79.5211 39.9914 81.5753 38.4311C83.6279 36.8734 84.6183 33.6032 83.7717 31.1677L83.7717 31.1677ZM78.4984 37.2375C76.8079 38.5222 74.8646 41.3152 74.2546 43.3402C73.5206 45.7502 70.91 47.2907 68.713 47.5668C68.0618 47.6486 67.1459 47.9831 66.178 48.3363C65.5836 48.5535 65.0569 48.7807 64.5526 48.9682C63.9206 49.2016 62.6182 49.6668 61.2793 49.1662C59.8555 48.6317 60.1129 46.49 60.0759 46.167L60.0769 46.1685C59.8935 43.1323 59.5013 35.9997 59.2303 31.0343C60.3327 29.9669 61.1585 29.1656 61.1585 29.1656C61.3809 28.9739 61.8717 28.4404 61.4069 27.9038C61.0496 27.4896 60.5036 27.8277 60.2822 28.0189C60.2822 28.0189 59.8201 28.3784 59.1168 28.9244C59.0146 27.0333 58.9521 25.8611 58.9521 25.8611C58.8969 24.2867 58.7146 23.6959 57.6846 23.6782C56.6364 23.6605 56.4488 24.3701 56.4228 25.3708C55.7393 24.84 55.2928 24.492 55.2928 24.492C55.0714 24.3008 54.5249 23.9621 54.168 24.3753C53.7044 24.9134 54.1956 25.4464 54.417 25.6386C54.417 25.6386 55.2241 26.4211 56.3061 27.4709C56.0383 32.2195 55.4851 42.8848 55.3001 46.1758L55.3048 46.1669C55.2465 47.101 55.4189 48.1868 54.2524 48.9911C53.4418 49.5496 51.8591 48.9911 50.751 48.6317C49.6507 48.2753 48.4926 47.9669 47.5361 48.0023C47.4944 48.0029 47.4553 48.0034 47.4158 48.0034C45.0677 48.0034 42.5619 46.2321 41.7867 44.0018C41.0776 41.9669 39.0641 39.3068 37.2954 38.0757C35.3376 36.7155 34.3044 33.748 34.9948 31.4631C35.6111 29.438 35.5407 26.0345 34.8437 24.0304C34.0612 21.7777 34.9713 18.7706 36.8729 17.3286C38.59 16.0262 40.4957 13.289 41.1162 11.226C41.8111 8.94202 44.316 7.04569 46.7005 6.99567C48.8151 6.95191 52.03 5.83443 53.7211 4.55545C55.62 3.1134 58.7615 3.0488 60.7193 4.4127C62.489 5.64323 65.6711 6.60443 67.8357 6.56535C67.8681 6.56431 67.8998 6.56431 67.9321 6.56431C70.2895 6.56431 72.8105 8.34082 73.5836 10.5648C74.2916 12.6008 76.3067 15.2583 78.0759 16.4888C80.0317 17.8511 81.0643 20.817 80.376 23.102C79.7602 25.1291 79.8285 28.5326 80.5266 30.5352C81.308 32.7884 80.3989 35.7965 78.4984 37.2375L78.4984 37.2375Z" fill="white"/>
<path fill-rule="evenodd" clip-rule="evenodd" d="M0.0036532 66.777C0.0020832 65.3985 0.0057332 64.021 3.2015e-06 62.6436C-0.000516799 62.3175 0.0620132 62.0434 0.403753 61.9116C0.706453 61.7955 0.937753 61.872 1.22272 62.1872C1.62334 62.6301 1.67597 62.6389 2.19591 62.3201C2.68198 62.0236 3.17272 61.7621 3.76819 61.7444C4.38606 61.7262 4.91744 61.9158 5.38579 62.3039C5.46602 62.3701 5.54625 62.4347 5.62284 62.505C6.06309 62.9015 6.17248 62.9062 6.6497 62.5733C6.88151 62.4107 7.1118 62.2419 7.35977 62.1091C9.13836 61.1536 11.1498 62.1039 11.5828 64.1008C11.6494 64.405 11.6859 64.7144 11.6864 65.0265C11.6906 66.989 11.6916 68.9515 11.6875 70.914C11.6859 71.5902 11.215 71.9513 10.6132 71.7528C10.3481 71.6663 10.1803 71.4866 10.1381 71.2099C10.1126 71.0333 10.1017 70.8536 10.1006 70.6744C10.098 68.8442 10.0969 67.0135 10.099 65.1828C10.1006 64.704 10.0605 64.2372 9.77499 63.8309C9.36656 63.2516 8.78305 63.0552 8.11256 63.1568C7.45562 63.2563 7.01178 63.6564 6.76535 64.2758C6.64345 64.5816 6.63876 64.9015 6.63876 65.2229C6.63771 67.0156 6.63876 68.8083 6.63771 70.6004C6.63719 70.7702 6.62831 70.9411 6.61011 71.1094C6.56218 71.5428 6.29022 71.7924 5.86406 71.8028C5.42802 71.8148 5.12534 71.5626 5.06334 71.1271C5.04718 71.0073 5.04979 70.8833 5.04979 70.7609C5.04927 68.8921 5.04407 67.0239 5.0524 65.1552C5.05396 64.6092 4.95601 64.1013 4.59029 63.6803C4.14956 63.1729 3.58429 63.0312 2.95081 63.1958C2.21311 63.3881 1.7781 63.8851 1.62178 64.6233C1.57074 64.8635 1.56398 65.1094 1.5645 65.3547C1.56761 67.2334 1.56813 69.1109 1.56503 70.9885C1.56398 71.633 0.993513 71.9888 0.409513 71.7142C0.0792032 71.5584 0.0020932 71.2693 0.0020932 70.9385C0.0036632 69.5512 0.0036632 68.1643 0.0036632 66.777H0.0036532Z" fill="white"/>
<path fill-rule="evenodd" clip-rule="evenodd" d="M29.9236 64.7277C29.9236 66.7558 29.9251 68.785 29.922 70.8132C29.9215 70.9726 29.9137 71.1346 29.8856 71.2914C29.8079 71.7228 29.3906 71.9181 29.003 71.7124C28.8587 71.6347 28.7519 71.517 28.6477 71.3925C28.3841 71.0815 28.2278 71.0512 27.8611 71.2414C27.6766 71.3378 27.4974 71.442 27.3182 71.5462C25.8152 72.4125 24.0522 71.6754 23.3036 70.2885C23.0009 69.7295 22.8441 69.1294 22.8363 68.4995C22.8227 67.3862 22.8154 66.2729 22.8363 65.1596C22.8696 63.3794 23.9892 62.0749 25.7396 61.7837C26.4856 61.6587 27.2067 61.7634 27.8491 62.2078C27.9037 62.2453 27.9574 62.2833 28.0163 62.3156C28.2252 62.4307 28.3112 62.388 28.3299 62.1562C28.3383 62.0718 28.3336 61.9858 28.3341 61.9014C28.3341 60.7975 28.3336 59.6941 28.3357 58.5901C28.3357 58.4495 28.344 58.3062 28.3669 58.1676C28.4351 57.7623 28.6909 57.5524 29.1129 57.5472C29.5479 57.5404 29.8235 57.7524 29.8949 58.164C29.9194 58.3026 29.922 58.4458 29.922 58.586C29.9236 60.6334 29.9236 62.6808 29.9236 64.7277L29.9236 64.7277ZM28.3226 66.8397C28.3226 66.2359 28.3398 65.6331 28.3185 65.0294C28.2825 63.9937 27.4734 63.1867 26.4596 63.1476C25.4187 63.1075 24.5336 63.8462 24.4466 64.8897C24.3398 66.1677 24.3481 67.4503 24.444 68.7288C24.5107 69.5998 25.2005 70.4954 26.3476 70.5095C27.3703 70.522 28.2794 69.6358 28.3179 68.622C28.3419 68.0291 28.3226 67.4342 28.3226 66.8397V66.8397Z" fill="white"/>
<path fill-rule="evenodd" clip-rule="evenodd" d="M20.6231 68.05C20.6231 69.0789 20.6189 70.1073 20.6257 71.1352C20.6283 71.4259 20.5527 71.6661 20.2703 71.7802C19.9781 71.8985 19.7223 71.8104 19.4978 71.5911C18.9835 71.0883 18.9679 71.0691 18.3417 71.4614C16.7533 72.458 14.6913 71.6937 14.0036 70.2907C13.0685 68.3803 14.1166 66.3881 16.2542 66.0594C17.0591 65.9344 17.8708 65.9677 18.6819 65.9636C19.0565 65.962 19.056 65.9589 19.0633 65.5853C19.0721 65.1107 19.0586 64.6445 18.8356 64.2063C18.4402 63.4353 17.6421 63.0326 16.7866 63.1795C16.4204 63.2425 16.076 63.3634 15.7436 63.5265C15.6009 63.5968 15.4545 63.664 15.3034 63.7171C14.9497 63.8422 14.6142 63.7291 14.4407 63.4358C14.261 63.1342 14.3276 62.7637 14.6194 62.5205C14.9137 62.2735 15.2716 62.1438 15.628 62.0208C16.8273 61.6046 18.0057 61.5957 19.0976 62.323C20.0922 62.9862 20.6101 63.9323 20.621 65.1357C20.6298 66.1068 20.6231 67.0784 20.6231 68.05L20.6231 68.05ZM17.7811 67.2743C17.416 67.2879 16.9627 67.2389 16.5157 67.342C15.8301 67.4999 15.3446 67.963 15.2513 68.5621C15.1383 69.2743 15.4112 69.8875 15.9948 70.2365C16.6819 70.646 17.8015 70.5913 18.4365 70.111C18.8111 69.8276 19.0304 69.4478 19.0508 68.9794C19.0721 68.4908 19.0565 68 19.0633 67.5088C19.0653 67.3415 18.9992 67.2686 18.8299 67.2722C18.5089 67.2779 18.1886 67.2743 17.7811 67.2743Z" fill="white"/>
<path fill-rule="evenodd" clip-rule="evenodd" d="M36.1639 67.2725C35.4668 67.2735 34.7682 67.2808 34.0707 67.2688C33.8383 67.2651 33.7565 67.3402 33.7622 67.5772C33.7737 68.0388 33.7414 68.5045 33.8456 68.9567C34.1097 70.1091 35.2235 70.7452 36.3968 70.4347C36.7286 70.3467 37.0365 70.2102 37.3308 70.0388C37.4283 69.981 37.5247 69.9205 37.6257 69.8716C38.0118 69.6814 38.391 69.7726 38.5947 70.1013C38.7979 70.4248 38.7192 70.8291 38.39 71.0807C37.9424 71.423 37.4361 71.6512 36.8891 71.783C35.6288 72.0841 34.4457 71.932 33.4184 71.0959C32.5994 70.4301 32.229 69.5267 32.2113 68.4858C32.1915 67.3642 32.1915 66.2415 32.2102 65.1198C32.2384 63.3865 33.5892 61.944 35.3272 61.758C37.0485 61.573 38.6974 62.6936 39.1021 64.3347C39.286 65.0781 39.2084 65.8382 39.1829 66.5889C39.1688 67.0109 38.7937 67.2667 38.2868 67.2714C37.5799 67.2771 36.8719 67.2725 36.1639 67.2725H36.1639ZM35.7106 65.9638C36.2577 65.9638 36.8042 65.9653 37.3501 65.9632C37.482 65.9627 37.6341 65.9747 37.6341 65.7783C37.6341 65.3652 37.6685 64.951 37.5429 64.5446C37.2981 63.7606 36.6656 63.2287 35.8654 63.1516C35.0954 63.0776 34.3655 63.4917 33.9961 64.219C33.7674 64.6712 33.7747 65.1635 33.7633 65.6553C33.7575 65.8882 33.8378 65.9726 34.0707 65.9679C34.6177 65.9565 35.1647 65.9637 35.7106 65.9637V65.9638Z" fill="white"/>
<path fill-rule="evenodd" clip-rule="evenodd" d="M49.0811 66.8055C49.0811 65.3801 49.0811 63.9557 49.0816 62.5314C49.0832 62.1157 49.2759 61.8802 49.6463 61.8416C49.8354 61.8218 50.0021 61.8875 50.1428 62.0089C50.2184 62.0735 50.286 62.1485 50.3512 62.2235C50.6383 62.5549 50.7919 62.5819 51.1754 62.3522C51.5817 62.1089 51.9964 61.8844 52.4653 61.7833C53.7448 61.5098 54.9779 62.0839 55.65 63.2675C55.972 63.8349 56.1371 64.4444 56.1371 65.0967C56.1387 67.1003 56.1387 69.104 56.1371 71.1066C56.1361 71.4801 55.9198 71.739 55.5599 71.8161C55.178 71.8974 54.806 71.7343 54.6586 71.4259C54.596 71.2952 54.5929 71.1566 54.5929 71.0159C54.5934 69.1196 54.5966 67.2227 54.5908 65.3259C54.5898 64.6341 54.3975 64.0203 53.8495 63.5457C53.2186 62.9992 52.049 62.9836 51.3999 63.5119C50.8149 63.988 50.6315 64.6252 50.6278 65.3358C50.6231 67.2321 50.6148 69.1295 50.6341 71.0264C50.6404 71.6859 50.0766 71.9516 49.5567 71.7839C49.2473 71.6838 49.0832 71.4384 49.0816 71.0769C49.0811 69.6526 49.0816 68.2288 49.0811 66.8055L49.0811 66.8055Z" fill="white"/>
<path fill-rule="evenodd" clip-rule="evenodd" d="M44.8305 66.8228C44.8305 65.4313 44.8295 64.0423 44.8305 62.6524C44.8305 62.0523 45.227 61.7318 45.811 61.8569C46.16 61.9303 46.3716 62.1856 46.3747 62.5529C46.3783 63.1718 46.3763 63.7897 46.3763 64.4086C46.3763 66.6175 46.3653 68.8254 46.3814 71.0327C46.3867 71.6465 45.8766 71.9455 45.339 71.7928C45.0061 71.6965 44.8316 71.4558 44.8316 71.0932C44.8295 69.6683 44.8305 68.2461 44.8305 66.8228Z" fill="white"/>
<path fill-rule="evenodd" clip-rule="evenodd" d="M45.5815 59.6358C45.0319 59.617 44.5776 59.1487 44.6036 58.6298C44.6297 58.1057 45.1032 57.6613 45.6205 57.6754C46.166 57.6884 46.625 58.1578 46.6036 58.6782C46.5812 59.2258 46.1223 59.6556 45.5815 59.6358Z" fill="white"/>
<path fill-rule="evenodd" clip-rule="evenodd" d="M78.0657 68.0792C78.0668 69.0867 78.0631 70.0943 78.0688 71.1018C78.0698 71.4233 78.0105 71.7077 77.676 71.8333C77.3561 71.9536 77.1008 71.8239 76.8732 71.5916C76.41 71.1206 76.3918 71.1018 75.8094 71.4769C74.3429 72.4236 72.4236 71.8864 71.6077 70.7007C70.6069 69.2472 70.781 66.6027 73.5562 66.0797C74.3679 65.9255 75.1915 65.9489 76.012 65.9625C76.3434 65.9682 76.4908 65.8703 76.4674 65.5165C76.4434 65.1451 76.4705 64.771 76.3288 64.4136C75.9177 63.3785 74.9722 62.9388 73.8281 63.2545C73.466 63.3545 73.1415 63.5415 72.7971 63.6848C72.3876 63.8536 72.0079 63.7463 71.8171 63.4201C71.6239 63.0904 71.703 62.684 72.0834 62.4464C73.9011 61.3133 76.3309 61.379 77.5958 63.4248C77.9089 63.9333 78.0574 64.498 78.0626 65.0925C78.0719 66.0875 78.0657 67.0831 78.0657 68.0792V68.0792ZM75.2035 67.3029V67.3196C74.8675 67.3196 74.5309 67.2982 74.198 67.3238C73.2806 67.3952 72.7106 67.9338 72.6278 68.7752C72.5517 69.5415 73.0357 70.2209 73.8297 70.4392C74.397 70.5934 74.9613 70.5798 75.5036 70.3365C76.1037 70.0672 76.4252 69.5936 76.4528 68.9393C76.4721 68.5048 76.4533 68.0693 76.4632 67.6338C76.4695 67.3977 76.3751 67.2941 76.135 67.3009C75.8244 67.3102 75.5135 67.3029 75.2035 67.3029Z" fill="white"/>
<path fill-rule="evenodd" clip-rule="evenodd" d="M108.867 68.0772C108.867 69.0853 108.863 70.0934 108.869 71.1004C108.87 71.4218 108.812 71.7063 108.477 71.8324C108.159 71.9537 107.903 71.824 107.675 71.5932C107.21 71.1218 107.192 71.102 106.612 71.4771C105.131 72.4325 103.193 71.8751 102.388 70.6722C101.409 69.2072 101.603 66.6003 104.355 66.0798C105.167 65.9256 105.99 65.9491 106.81 65.9626C107.141 65.9683 107.293 65.8735 107.269 65.5182C107.243 65.1467 107.272 64.7743 107.13 64.4153C106.72 63.3796 105.774 62.9389 104.63 63.2546C104.267 63.3546 103.943 63.5416 103.599 63.6834C103.189 63.8537 102.809 63.7469 102.619 63.4213C102.423 63.092 102.503 62.6852 102.883 62.4476C104.697 61.3166 107.129 61.3775 108.395 63.4239C108.709 63.9329 108.857 64.4971 108.863 65.0915C108.873 66.0866 108.865 67.0827 108.867 68.0772H108.867ZM105.998 67.3031V67.3197C105.661 67.3197 105.323 67.2984 104.992 67.3244C104.076 67.3984 103.505 67.9413 103.428 68.7821C103.356 69.5495 103.843 70.2231 104.637 70.4414C105.101 70.569 105.569 70.5716 106.034 70.4377C106.805 70.2169 107.236 69.6631 107.257 68.8576C107.269 68.4601 107.25 68.0621 107.265 67.6651C107.277 67.3869 107.16 67.2879 106.892 67.2999C106.592 67.313 106.296 67.3031 105.998 67.3031H105.998Z" fill="white"/>
<path fill-rule="evenodd" clip-rule="evenodd" d="M61.8925 66.7812V62.9718C61.8936 62.8233 61.8993 62.6738 61.9092 62.5253C61.9316 62.2185 62.0379 61.971 62.3635 61.8679C62.6662 61.7715 62.8949 61.8965 63.1017 62.0982C63.6013 62.5837 63.6086 62.5962 64.1989 62.2404C66.6813 60.7488 68.9288 62.6394 68.9912 64.9796C69.0433 66.9817 69.0048 68.9864 69.0022 70.9901C69.0022 71.5262 68.7131 71.8419 68.2343 71.8554C67.7529 71.8684 67.4075 71.5314 67.4044 70.9995C67.395 69.4563 67.4007 67.9137 67.3992 66.3701C67.3981 65.8971 67.4117 65.4235 67.3846 64.951C67.3304 63.9481 66.5026 63.1635 65.4981 63.139C64.4818 63.1156 63.643 63.8471 63.5461 64.8671C63.4106 66.2831 63.5122 67.7022 63.4872 69.1203C63.4747 69.7668 63.4903 70.4139 63.4804 71.0604C63.4747 71.5454 63.2215 71.8158 62.7677 71.8507C62.3093 71.8861 61.9738 71.6241 61.9301 71.1458C61.8435 70.2034 61.9076 69.2563 61.8936 68.3123C61.8863 67.8012 61.8925 67.2907 61.8925 66.7811L61.8925 66.7812Z" fill="white"/>
<path fill-rule="evenodd" clip-rule="evenodd" d="M94.0275 66.8794C94.0275 68.247 94.0285 69.6156 94.0259 70.9852C94.0259 71.1201 94.0285 71.2629 93.9941 71.3921C93.8816 71.8266 93.4284 71.9954 93.0538 71.7401C92.922 71.65 92.8032 71.5333 92.7006 71.4109C92.476 71.1447 92.2218 71.1306 91.9353 71.2921C91.7847 71.3786 91.6341 71.4661 91.4825 71.552C89.6497 72.5794 87.6956 71.5796 87.1105 69.6599C86.949 69.1285 86.9245 68.5809 86.9193 68.035C86.9084 66.3689 86.9146 64.7018 86.9172 63.0347C86.9172 62.8742 86.9308 62.7117 86.949 62.5517C87.0058 62.0735 87.3121 61.8062 87.7701 61.8271C88.228 61.8479 88.5046 62.1386 88.5057 62.6314C88.5099 64.4356 88.5031 66.2402 88.5119 68.0438C88.513 68.3527 88.5374 68.6669 88.5942 68.9701C88.7761 69.9328 89.6524 70.6132 90.5787 70.5309C91.6368 70.4371 92.3906 69.7083 92.4062 68.6716C92.4359 66.8065 92.4192 64.9404 92.4234 63.0743C92.4234 62.9242 92.4177 62.7752 92.4276 62.6268C92.4604 62.1277 92.7688 61.8239 93.233 61.8266C93.729 61.8286 94.0233 62.1287 94.0249 62.6627C94.0301 64.0672 94.027 65.4723 94.0275 66.8794H94.0275Z" fill="white"/>
<path fill-rule="evenodd" clip-rule="evenodd" d="M82.7257 66.4379C82.7257 67.3079 82.7293 68.1785 82.7257 69.0485C82.7246 69.2616 82.746 69.4705 82.7924 69.6784C82.9336 70.2994 83.4352 70.6437 84.062 70.5442C84.2094 70.5203 84.3527 70.4739 84.499 70.4463C84.8971 70.3718 85.1675 70.502 85.2904 70.8245C85.4175 71.1584 85.3102 71.5012 84.9716 71.6862C84.285 72.0607 83.5561 72.0451 82.8393 71.8091C81.7442 71.4497 81.1393 70.4801 81.1336 69.1115C81.1247 67.333 81.1315 65.5554 81.1305 63.7773C81.1305 63.2777 81.1247 63.2756 80.6361 63.273C80.4006 63.2704 80.1635 63.2819 79.9275 63.2652C79.5389 63.2386 79.3034 63.0094 79.2878 62.6676C79.2737 62.3509 79.4811 62.104 79.8504 62.0399C80.1917 61.9816 80.5371 61.9399 80.8841 61.9096C81.1044 61.8904 81.1716 61.7851 81.1888 61.5762C81.2299 61.0813 81.2904 60.5879 81.3545 60.0951C81.3717 59.9497 81.4024 59.7961 81.4681 59.6658C81.6176 59.3626 81.8827 59.2376 82.211 59.3011C82.5423 59.3652 82.7325 59.5663 82.7277 59.9268C82.721 60.4113 82.746 60.8974 82.721 61.3809C82.7028 61.7335 82.8153 61.868 83.181 61.857C83.6884 61.8419 84.2011 61.8065 84.7075 61.8893C85.0804 61.9498 85.2717 62.1857 85.2733 62.5567C85.2758 62.9943 85.0294 63.2486 84.5418 63.2663C84.0578 63.2845 83.5712 63.2829 83.0872 63.2688C82.8101 63.2605 82.7189 63.3673 82.723 63.6408C82.734 64.5728 82.7257 65.5054 82.7257 66.4379L82.7257 66.4379Z" fill="white"/>
<path fill-rule="evenodd" clip-rule="evenodd" d="M112.999 64.6415C112.999 66.7431 113.001 68.8441 112.996 70.9462C112.994 71.6423 112.512 72.008 111.9 71.796C111.657 71.7126 111.498 71.5495 111.437 71.3031C111.404 71.1718 111.393 71.0327 111.393 70.8973C111.39 66.7321 111.39 62.568 111.391 58.4023C111.391 57.8438 111.619 57.5458 112.069 57.4938C112.633 57.4271 112.991 57.7438 112.995 58.3372C113.003 59.7173 112.999 61.0978 112.999 62.4779L112.999 64.6415Z" fill="white"/>
<path fill-rule="evenodd" clip-rule="evenodd" d="M96.6998 66.789C96.6998 65.4205 96.703 64.0519 96.6983 62.6822C96.6972 62.3389 96.7483 62.0388 97.1166 61.8883C97.4896 61.7351 97.7282 61.9466 97.9622 62.1863C98.4274 62.6661 98.4274 62.665 98.9833 62.3077C99.4448 62.0118 99.9085 61.7179 100.494 61.7424C100.961 61.7622 101.224 62.0071 101.232 62.4488C101.239 62.912 100.979 63.2016 100.503 63.2074C99.8601 63.2141 99.2578 63.3137 98.8066 63.8232C98.4518 64.2233 98.3107 64.7062 98.3107 65.2334C98.3081 67.1381 98.3122 69.0422 98.3055 70.9464C98.3033 71.6513 97.7866 72.03 97.1729 71.7831C96.79 71.6283 96.6998 71.3059 96.6998 70.9334C96.7024 69.5518 96.7004 68.1701 96.6998 66.789H96.6998Z" fill="white"/>
</svg>
