<svg width="33" height="24" viewBox="0 0 33 24" fill="none" xmlns="http://www.w3.org/2000/svg">
<g clip-path="url(#clip0_1_15125)">
<path d="M31.3469 2.89933H1.01119C0.45272 2.89933 0 2.4466 0 1.88814C0 1.32967 0.45273 0.876953 1.01119 0.876953H31.3469C31.9054 0.876953 32.3581 1.32968 32.3581 1.88814C32.3581 2.44661 31.9054 2.89933 31.3469 2.89933Z" fill="black"/>
<path d="M31.3469 13.0114H1.01119C0.45272 13.0114 0 12.5587 0 12.0002C0 11.4417 0.45273 10.989 1.01119 10.989H31.3469C31.9054 10.989 32.3581 11.4417 32.3581 12.0002C32.3581 12.5587 31.9054 13.0114 31.3469 13.0114Z" fill="black"/>
<path d="M31.3469 23.1235H1.01119C0.45272 23.1235 0 22.6707 0 22.1123C0 21.5538 0.45273 21.1011 1.01119 21.1011H31.3469C31.9054 21.1011 32.3581 21.5538 32.3581 22.1123C32.3581 22.6707 31.9054 23.1235 31.3469 23.1235Z" fill="black"/>
</g>
<defs>
<clipPath id="clip0_1_15125">
<rect width="32.3581" height="22.2464" fill="white" transform="translate(0 0.876953)"/>
</clipPath>
</defs>
</svg>
