<svg width="27" height="26" viewBox="0 0 27 26" fill="none" xmlns="http://www.w3.org/2000/svg">
<path fill-rule="evenodd" clip-rule="evenodd" d="M10.6363 20.9585C12.9438 20.9585 15.1853 20.1886 17.0057 18.7707L23.8736 25.6387C24.3867 26.1342 25.2042 26.12 25.6997 25.6069C26.1831 25.1064 26.1831 24.313 25.6997 23.8126L18.8318 16.9447C22.3502 12.4155 21.5309 5.89164 17.0017 2.37321C12.4726 -1.14522 5.94877 -0.325902 2.43034 4.20327C-1.08809 8.73244 -0.268773 15.2563 4.2604 18.7747C6.0838 20.1912 8.3273 20.9596 10.6363 20.9585ZM5.11797 5.05687C8.16568 2.0091 13.107 2.00905 16.1548 5.05676C19.2025 8.10447 19.2026 13.0458 16.1549 16.0936C13.1072 19.1413 8.16584 19.1414 5.11808 16.0937C5.11802 16.0936 5.11802 16.0936 5.11797 16.0936C2.07026 13.068 2.0523 8.14475 5.07781 5.09704C5.09118 5.08362 5.10455 5.07025 5.11797 5.05688V5.05687Z" fill="#5A5A5A"/>
</svg>
