<svg width="22" height="21" viewBox="0 0 22 21" fill="none" xmlns="http://www.w3.org/2000/svg">
<path fill-rule="evenodd" clip-rule="evenodd" d="M18.7524 20.9986H3.27201C2.16984 20.9986 1.50858 19.8937 1.29093 19.5303C0.900062 18.8783 0.894572 17.8194 1.2786 17.0128L2.12723 15.1209C2.81668 13.672 4.49967 12.7834 5.73746 12.6732C6.0557 12.6442 6.72855 12.5099 7.53629 12.3156C7.72245 12.2712 7.87796 12.2294 8.00809 12.1928C6.67948 11.031 5.89298 9.17746 5.89298 7.18126C5.89298 3.76936 8.19669 0.993164 11.0284 0.993164C13.8597 0.993164 16.1628 3.76906 16.1628 7.18006C16.1628 9.16696 15.3835 11.011 14.0652 12.174C14.1895 12.2091 14.3354 12.2473 14.5074 12.2893C15.1359 12.4415 15.9009 12.5834 16.2879 12.6179C17.57 12.7329 19.2187 13.5864 19.8881 14.9923L20.746 16.7934C21.0868 17.5096 21.1653 18.8102 20.7331 19.5312C20.5158 19.8937 19.8547 20.9986 18.7524 20.9986H18.7524ZM9.45683 11.1272C9.80278 11.6007 9.99138 12.1383 10.0029 12.6884C10.0085 12.9601 9.89543 13.2212 9.69474 13.3982C9.50614 13.5637 9.13554 13.7921 7.93168 14.0825C7.40519 14.209 6.43876 14.4296 5.88761 14.4792C5.1276 14.5464 4.06888 15.1357 3.70316 15.9051L2.85441 17.7967C2.71122 18.0968 2.72538 18.4735 2.77751 18.5767C3.10551 19.1255 3.28508 19.1851 3.29252 19.1872L18.7381 19.1851C18.7729 19.1706 18.9488 19.0747 19.2486 18.5742C19.3089 18.4278 19.3053 17.8623 19.1791 17.5973L18.3215 15.7953C17.9605 15.0371 16.9067 14.494 16.1368 14.4238C15.6633 14.3821 14.8291 14.229 14.1088 14.0541C12.8975 13.76 12.5375 13.5413 12.3592 13.3827C12.1607 13.2057 12.0483 12.9468 12.0535 12.676C12.065 12.1014 12.2618 11.5611 12.6393 11.0682C12.6843 11.0095 12.737 10.9544 12.7944 10.9091C13.8093 10.1034 14.4152 8.70916 14.4152 7.18006C14.4152 4.76836 12.8958 2.80576 11.0284 2.80576C9.16022 2.80576 7.64081 4.76836 7.64081 7.18126C7.64081 8.71096 8.24713 10.1064 9.26227 10.9127C9.33869 10.9732 9.40387 11.0458 9.45685 11.1272H9.45683Z" fill="black"/>
</svg>
